<mxfile host="app.diagrams.net" modified="2022-12-26T03:01:47.066Z" agent="5.0 (Windows NT 10.0; Win64; x64) AppleWebKit/537.36 (KHTML, like Gecko) Chrome/108.0.0.0 Safari/537.36" version="20.7.4" etag="0SvoXSGbUQZHSpZk3xwv" type="github">
  <diagram id="Sgv6cr8Wvo6JaJ9kn9vv" name="Page-1">
    <mxGraphModel dx="792" dy="778" grid="1" gridSize="10" guides="1" tooltips="1" connect="1" arrows="1" fold="1" page="1" pageScale="1" pageWidth="850" pageHeight="1100" math="0" shadow="0">
      <root>
        <mxCell id="0" />
        <mxCell id="1" parent="0" />
        <mxCell id="8_GV6-y4q7LSH-abXdu7-1" value="Terraform TopLevel&lt;br&gt;Blocks" style="ellipse;whiteSpace=wrap;html=1;" vertex="1" parent="1">
          <mxGeometry x="320" y="70" width="120" height="80" as="geometry" />
        </mxCell>
        <mxCell id="8_GV6-y4q7LSH-abXdu7-2" value="&lt;br&gt;&lt;br&gt;&lt;br&gt;&lt;br&gt;&lt;br&gt;&lt;br&gt;&lt;br&gt;&lt;br&gt;&lt;br&gt;&lt;br&gt;Fundemental Block" style="whiteSpace=wrap;html=1;aspect=fixed;" vertex="1" parent="1">
          <mxGeometry x="50" y="220" width="180" height="180" as="geometry" />
        </mxCell>
        <mxCell id="8_GV6-y4q7LSH-abXdu7-3" value="&lt;br&gt;&lt;br&gt;&lt;br&gt;&lt;br&gt;&lt;br&gt;&lt;br&gt;&lt;br&gt;&lt;br&gt;&lt;br&gt;&lt;br&gt;&lt;br&gt;Variable Block" style="whiteSpace=wrap;html=1;aspect=fixed;" vertex="1" parent="1">
          <mxGeometry x="320" y="220" width="180" height="180" as="geometry" />
        </mxCell>
        <mxCell id="8_GV6-y4q7LSH-abXdu7-4" value="&lt;br&gt;&lt;br&gt;&lt;br&gt;&lt;br&gt;&lt;br&gt;&lt;br&gt;&lt;br&gt;&lt;br&gt;&lt;br&gt;&lt;br&gt;&lt;br&gt;Calling/ Reference Block" style="whiteSpace=wrap;html=1;aspect=fixed;" vertex="1" parent="1">
          <mxGeometry x="580" y="220" width="180" height="180" as="geometry" />
        </mxCell>
        <mxCell id="8_GV6-y4q7LSH-abXdu7-5" value="Terraform Block" style="rounded=0;whiteSpace=wrap;html=1;" vertex="1" parent="1">
          <mxGeometry x="70" y="230" width="140" height="30" as="geometry" />
        </mxCell>
        <mxCell id="8_GV6-y4q7LSH-abXdu7-6" value="Provider Block" style="rounded=0;whiteSpace=wrap;html=1;" vertex="1" parent="1">
          <mxGeometry x="70" y="280" width="140" height="30" as="geometry" />
        </mxCell>
        <mxCell id="8_GV6-y4q7LSH-abXdu7-7" value="Resource Block" style="rounded=0;whiteSpace=wrap;html=1;" vertex="1" parent="1">
          <mxGeometry x="70" y="330" width="140" height="30" as="geometry" />
        </mxCell>
        <mxCell id="8_GV6-y4q7LSH-abXdu7-8" value="Input Variables Block" style="rounded=0;whiteSpace=wrap;html=1;" vertex="1" parent="1">
          <mxGeometry x="340" y="230" width="140" height="30" as="geometry" />
        </mxCell>
        <mxCell id="8_GV6-y4q7LSH-abXdu7-9" value="Output Values Block" style="rounded=0;whiteSpace=wrap;html=1;" vertex="1" parent="1">
          <mxGeometry x="340" y="280" width="140" height="30" as="geometry" />
        </mxCell>
        <mxCell id="8_GV6-y4q7LSH-abXdu7-10" value="Local Values Block" style="rounded=0;whiteSpace=wrap;html=1;" vertex="1" parent="1">
          <mxGeometry x="340" y="330" width="140" height="30" as="geometry" />
        </mxCell>
        <mxCell id="8_GV6-y4q7LSH-abXdu7-11" value="Data Sources Block" style="rounded=0;whiteSpace=wrap;html=1;" vertex="1" parent="1">
          <mxGeometry x="600" y="230" width="140" height="30" as="geometry" />
        </mxCell>
        <mxCell id="8_GV6-y4q7LSH-abXdu7-12" value="Modules Block" style="rounded=0;whiteSpace=wrap;html=1;" vertex="1" parent="1">
          <mxGeometry x="600" y="280" width="140" height="30" as="geometry" />
        </mxCell>
        <mxCell id="8_GV6-y4q7LSH-abXdu7-14" value="" style="endArrow=classic;startArrow=classic;html=1;rounded=0;exitX=0.75;exitY=0;exitDx=0;exitDy=0;" edge="1" parent="1" source="8_GV6-y4q7LSH-abXdu7-2">
          <mxGeometry width="50" height="50" relative="1" as="geometry">
            <mxPoint x="280" y="180" as="sourcePoint" />
            <mxPoint x="330" y="130" as="targetPoint" />
          </mxGeometry>
        </mxCell>
        <mxCell id="8_GV6-y4q7LSH-abXdu7-15" value="" style="endArrow=classic;startArrow=classic;html=1;rounded=0;exitX=0.75;exitY=0;exitDx=0;exitDy=0;entryX=0.667;entryY=0.975;entryDx=0;entryDy=0;entryPerimeter=0;" edge="1" parent="1" target="8_GV6-y4q7LSH-abXdu7-1">
          <mxGeometry width="50" height="50" relative="1" as="geometry">
            <mxPoint x="420" y="220" as="sourcePoint" />
            <mxPoint x="565" y="130" as="targetPoint" />
          </mxGeometry>
        </mxCell>
        <mxCell id="8_GV6-y4q7LSH-abXdu7-16" value="" style="endArrow=classic;startArrow=classic;html=1;rounded=0;exitX=0.25;exitY=0;exitDx=0;exitDy=0;entryX=1;entryY=1;entryDx=0;entryDy=0;" edge="1" parent="1" source="8_GV6-y4q7LSH-abXdu7-4" target="8_GV6-y4q7LSH-abXdu7-1">
          <mxGeometry x="0.0471" y="-83" width="50" height="50" relative="1" as="geometry">
            <mxPoint x="509.96" y="212" as="sourcePoint" />
            <mxPoint x="489.99999999999994" y="140" as="targetPoint" />
            <mxPoint as="offset" />
          </mxGeometry>
        </mxCell>
        <mxCell id="8_GV6-y4q7LSH-abXdu7-17" value="Terraform Basic blocks" style="ellipse;whiteSpace=wrap;html=1;" vertex="1" parent="1">
          <mxGeometry x="340" y="470" width="120" height="80" as="geometry" />
        </mxCell>
        <mxCell id="8_GV6-y4q7LSH-abXdu7-18" value="Terraform Settings&amp;nbsp; Block" style="ellipse;whiteSpace=wrap;html=1;" vertex="1" parent="1">
          <mxGeometry x="70" y="580" width="120" height="80" as="geometry" />
        </mxCell>
        <mxCell id="8_GV6-y4q7LSH-abXdu7-19" value="Providers block" style="ellipse;whiteSpace=wrap;html=1;" vertex="1" parent="1">
          <mxGeometry x="340" y="590" width="120" height="80" as="geometry" />
        </mxCell>
        <mxCell id="8_GV6-y4q7LSH-abXdu7-20" value="Resource Block" style="ellipse;whiteSpace=wrap;html=1;" vertex="1" parent="1">
          <mxGeometry x="560" y="590" width="120" height="80" as="geometry" />
        </mxCell>
        <mxCell id="8_GV6-y4q7LSH-abXdu7-21" value="- Used to Configure some behaviors&lt;br&gt;- Used to specify a required version&lt;br&gt;- Used to specify Provider Requirements and Versions&lt;br&gt;&lt;font color=&quot;#ff6666&quot;&gt;- To Configure a Terraform Backend block (Terraform State)&lt;/font&gt;" style="whiteSpace=wrap;html=1;aspect=fixed;" vertex="1" parent="1">
          <mxGeometry x="55" y="730" width="170" height="170" as="geometry" />
        </mxCell>
        <mxCell id="8_GV6-y4q7LSH-abXdu7-22" value="" style="endArrow=classic;startArrow=classic;html=1;rounded=0;fontColor=#FF6666;exitX=0.441;exitY=-0.006;exitDx=0;exitDy=0;exitPerimeter=0;" edge="1" parent="1" source="8_GV6-y4q7LSH-abXdu7-21">
          <mxGeometry width="50" height="50" relative="1" as="geometry">
            <mxPoint x="80" y="710" as="sourcePoint" />
            <mxPoint x="130" y="660" as="targetPoint" />
          </mxGeometry>
        </mxCell>
      </root>
    </mxGraphModel>
  </diagram>
</mxfile>
